<svg xmlns="http://www.w3.org/2000/svg" width="512" height="512" viewBox="0 0 512 512">
  <rect width="512" height="512" fill="#1f2937" rx="128" ry="128" />
  <path d="M 256 128 C 200 128 160 168 160 224 L 160 288 L 128 288 L 128 352 L 160 352 L 160 384 L 352 384 L 352 352 L 384 352 L 384 288 L 352 288 L 352 224 C 352 168 312 128 256 128 Z M 256 160 C 294 160 320 186 320 224 L 320 288 L 192 288 L 192 224 C 192 186 218 160 256 160 Z" fill="#ffffff" />
  <circle cx="256" cy="320" r="24" fill="#ef4444" />
</svg>
